<?xml version="1.0" encoding="UTF-8"?>
<svg id="Layer_1" data-name="Layer 1" xmlns="http://www.w3.org/2000/svg" viewBox="0 0 367.35 259.35">
  <defs>
    <style>
      .cls-1 {
        fill: #6ebe45;
      }

      .cls-2 {
        opacity: .46;
      }
    </style>
  </defs>
  <g class="cls-2">
    <path class="cls-1" d="M187.87,36.03l-9.33,2.15c-27.35,7.72-44.75,33.62-34.13,61.7,4.15,10.97,12.01,18.76,20.49,26.47-15.23,10.02-32.09,18.87-41.83,34.97-9.8,16.19-9.83,36.22,4.46,49.72.05.26-.35.23-.51.17-1.98-.81-7.77-5.55-9.61-7.19-16.54-14.65-28.27-36.86-30.97-58.85-7.41-60.42,41.41-111.17,101.43-109.14Z"/>
    <path class="cls-1" d="M163.53,227.32c-.08-.61.77-.33,1.15-.3,16.41,1.5,36.19-2.82,50.11-11.69,28.03-17.87,34.06-51,13.18-77.3-6.3-7.94-14.3-14.26-21.23-21.57,17.91-10.74,46.22-27.41,41.72-52.4-.32-1.76-1.13-3.34-1.46-5.06,4.1,3.31,7.87,6.97,11.32,10.96,37.05,42.86,28.78,106.99-16.32,140.36-22.29,16.49-51.22,22.79-78.47,17Z"/>
    <path class="cls-1" d="M173.65,135.19c14.46,13.37,32.74,29.2,26.12,51.41-7.08,23.76-39.67,28.15-52.07,5.98-12.87-23.01,8.57-44.93,25.95-57.4Z"/>
    <path class="cls-1" d="M200.83,49.85c9.32-.66,18.34,4.4,22.07,13.04,8.16,18.94-11.97,35.46-25.55,45.1-11.51-10.73-23.81-26.06-17.18-42.81,3.36-8.49,11.48-14.68,20.67-15.33Z"/>
  </g>
</svg>